# xmcd
#
# Track frame offsets:
#	150
#	14632
#	28432
#	43735
#	57380
#	72215
#	81800
#	101235
#	120903
#	135501
#	148583
#	173643
#
# Disc length: 2583
#
# Revision: 2
# Processed by: cddbd v1.5.1PL0 Copyright (c) Steve Scherf et al.
# Submitted via: CDex 1.50
# Normalized: r1:DSETVAR1,TDELIM( - )
#
DISCID=a90a150c
DTITLE=Various Artist - Eddie Bauer - refresh no.1
DYEAR=1999
DGENRE=Jazz
TTITLE0=Louis Armstrong - Let's Fall In Love
TTITLE1=Nina Simone - My Baby Just Cares For Me
TTITLE2=Karrin Allyson - (Pack Your) Suitcase Blues
TTITLE3=Blossom Dearie - Thou Swell
TTITLE4=Sarah Vaughan - All Of Me
TTITLE5=Eden Atwood - I Didn't Know What Time It Was
TTITLE6=Mary Stallings - This Can't Be Love
TTITLE7=Joe WIlliams and Mariena Shaw - Baby You Got What It Takes
TTITLE8=Anita O'Day - Honeysuckle Rose
TTITLE9=Susannah McCorkie - At The Jazz Band Ball
TTITLE10=Billie Holiday - Just One Of Those Things
TTITLE11=Dinah Washington - I Could Write A Book
EXTD=YEAR: 1999
EXTT0=
EXTT1=
EXTT2=
EXTT3=
EXTT4=
EXTT5=
EXTT6=
EXTT7=
EXTT8=
EXTT9=
EXTT10=
EXTT11=
PLAYORDER=
